# Blender v2.76 (sub 0) OBJ File: ''
# www.blender.org
o Cube.005
v 3.000000 -0.829145 1.000000
v 3.000000 -0.126444 1.000000
v 2.815665 -0.126444 0.815665
v 2.815665 -0.771367 0.815665
v 2.813953 -0.829145 1.000000
v 2.813953 -0.126444 1.000000
v 2.663913 -0.126444 0.815665
v 2.663913 -0.771367 0.815665
v 3.000000 -0.126444 0.820755
v 2.815665 -0.126444 0.669461
v 2.815665 -0.771367 0.669461
v 3.000000 -0.829145 0.820755
v 2.813953 -0.829145 0.820755
v 2.663913 -0.771367 0.669461
v 2.813953 -1.975531 1.000000
v 3.000000 -1.975531 1.000000
v 2.813953 -1.975531 0.820755
v 3.000000 -1.975531 0.820755
v -3.000000 -0.829145 1.000000
v -3.000000 -0.126444 1.000000
v -2.815665 -0.126444 0.815665
v -2.815665 -0.771367 0.815665
v 0.000000 -0.126444 1.000000
v 0.000000 -0.829145 1.000000
v 0.000000 -0.126444 0.815665
v 0.000000 -0.771367 0.815665
v -2.813953 -0.829145 1.000000
v -2.813953 -0.126444 1.000000
v -2.663913 -0.126444 0.815665
v -2.663913 -0.771367 0.815665
v -3.000000 -0.126444 0.820755
v -2.815665 -0.126444 0.669461
v -2.815665 -0.771367 0.669461
v 0.000000 -0.771367 0.669461
v 0.000000 -0.829145 0.820755
v -3.000000 -0.829145 0.820755
v -2.813953 -0.829145 0.820755
v -2.663913 -0.771367 0.669461
v -2.813953 -1.975531 1.000000
v -3.000000 -1.975531 1.000000
v -2.813953 -1.975531 0.820755
v -3.000000 -1.975531 0.820755
v 3.000000 -0.829145 -1.000000
v 3.000000 -0.126444 -1.000000
v 2.815665 -0.126444 -0.815665
v 2.815665 -0.771367 -0.815665
v 3.000000 -0.126444 0.000000
v 3.000000 -0.829145 0.000000
v 2.815665 -0.126444 0.000000
v 2.815665 -0.771367 0.000000
v 2.813953 -0.829145 -1.000000
v 2.813953 -0.126444 -1.000000
v 2.663913 -0.126444 -0.815665
v 2.663913 -0.771367 -0.815665
v 2.663913 -0.771367 0.000000
v 2.813953 -0.829145 0.000000
v 3.000000 -0.126444 -0.820755
v 2.815665 -0.126444 -0.669461
v 2.815665 -0.771367 -0.669461
v 3.000000 -0.829145 -0.820755
v 2.813953 -0.829145 -0.820755
v 2.663913 -0.771367 -0.669461
v 2.813953 -1.975531 -1.000000
v 3.000000 -1.975531 -1.000000
v 2.813953 -1.975531 -0.820755
v 3.000000 -1.975531 -0.820755
v -3.000000 -0.829145 -1.000000
v -3.000000 -0.126444 -1.000000
v -2.815665 -0.126444 -0.815665
v -2.815665 -0.771367 -0.815665
v 0.000000 -0.126444 -1.000000
v 0.000000 -0.829145 -1.000000
v 0.000000 -0.126444 -0.815665
v 0.000000 -0.771367 -0.815665
v -3.000000 -0.126444 0.000000
v -3.000000 -0.829145 0.000000
v -2.815665 -0.126444 0.000000
v -2.815665 -0.771367 0.000000
v 0.000000 -0.771367 0.000000
v 0.000000 -0.829145 0.000000
v -2.813953 -0.829145 -1.000000
v -2.813953 -0.126444 -1.000000
v -2.663913 -0.126444 -0.815665
v -2.663913 -0.771367 -0.815665
v -2.663913 -0.771367 0.000000
v -2.813953 -0.829145 0.000000
v -3.000000 -0.126444 -0.820755
v -2.815665 -0.126444 -0.669461
v -2.815665 -0.771367 -0.669461
v 0.000000 -0.771367 -0.669461
v 0.000000 -0.829145 -0.820755
v -3.000000 -0.829145 -0.820755
v -2.813953 -0.829145 -0.820755
v -2.663913 -0.771367 -0.669461
v -2.813953 -1.975531 -1.000000
v -3.000000 -1.975531 -1.000000
v -2.813953 -1.975531 -0.820755
v -3.000000 -1.975531 -0.820755
vn 1.000000 0.000000 0.000000
vn 0.000000 0.000000 -1.000000
vn 0.000000 1.000000 0.000000
vn 0.000000 0.000000 1.000000
vn -1.000000 0.000000 0.000000
vn 0.000000 -1.000000 0.000000
s off
f 2//1 1//1 12//1
f 3//2 4//2 8//2
f 6//3 2//3 3//3
f 23//4 24//4 5//4
f 55//3 79//3 34//3
f 49//5 50//5 11//5
f 47//3 49//3 10//3
f 56//6 48//6 12//6
f 80//6 56//6 13//6
f 50//3 55//3 14//3
f 6//4 5//4 1//4
f 23//3 6//3 7//3
f 7//2 8//2 26//2
f 11//3 14//3 8//3
f 35//6 13//6 5//6
f 12//2 18//2 17//2
f 9//3 10//3 3//3
f 10//5 11//5 4//5
f 14//3 34//3 26//3
f 9//1 12//1 48//1
f 17//6 18//6 16//6
f 13//5 17//5 15//5
f 1//1 16//1 18//1
f 5//4 15//4 16//4
f 36//5 19//5 20//5
f 30//2 22//2 21//2
f 28//3 29//3 21//3
f 27//4 24//4 23//4
f 34//3 79//3 85//3
f 33//1 78//1 77//1
f 32//3 77//3 75//3
f 36//6 76//6 86//6
f 37//6 86//6 80//6
f 38//3 85//3 78//3
f 19//4 27//4 28//4
f 23//3 25//3 29//3
f 26//2 30//2 29//2
f 30//3 38//3 33//3
f 27//6 37//6 35//6
f 41//2 42//2 36//2
f 21//3 32//3 31//3
f 22//1 33//1 32//1
f 26//3 34//3 38//3
f 76//5 36//5 31//5
f 40//6 42//6 41//6
f 39//1 41//1 37//1
f 42//5 40//5 19//5
f 40//4 39//4 27//4
f 60//1 43//1 44//1
f 54//4 46//4 45//4
f 52//3 53//3 45//3
f 51//2 72//2 71//2
f 90//3 79//3 55//3
f 59//5 50//5 49//5
f 58//3 49//3 47//3
f 60//6 48//6 56//6
f 61//6 56//6 80//6
f 62//3 55//3 50//3
f 43//2 51//2 52//2
f 71//3 73//3 53//3
f 74//4 54//4 53//4
f 54//3 62//3 59//3
f 51//6 61//6 91//6
f 65//4 66//4 60//4
f 45//3 58//3 57//3
f 46//5 59//5 58//5
f 74//3 90//3 62//3
f 48//1 60//1 57//1
f 64//6 66//6 65//6
f 63//5 65//5 61//5
f 66//1 64//1 43//1
f 64//2 63//2 51//2
f 68//5 67//5 92//5
f 69//4 70//4 84//4
f 82//3 68//3 69//3
f 71//2 72//2 81//2
f 85//3 79//3 90//3
f 77//1 78//1 89//1
f 75//3 77//3 88//3
f 86//6 76//6 92//6
f 80//6 86//6 93//6
f 78//3 85//3 94//3
f 82//2 81//2 67//2
f 71//3 82//3 83//3
f 83//4 84//4 74//4
f 89//3 94//3 84//3
f 91//6 93//6 81//6
f 92//4 98//4 97//4
f 87//3 88//3 69//3
f 88//1 89//1 70//1
f 94//3 90//3 74//3
f 87//5 92//5 76//5
f 97//6 98//6 96//6
f 93//1 97//1 95//1
f 67//5 96//5 98//5
f 81//2 95//2 96//2
f 9//1 2//1 12//1
f 7//2 3//2 8//2
f 7//3 6//3 3//3
f 6//4 23//4 5//4
f 14//3 55//3 34//3
f 10//5 49//5 11//5
f 9//3 47//3 10//3
f 13//6 56//6 12//6
f 35//6 80//6 13//6
f 11//3 50//3 14//3
f 2//4 6//4 1//4
f 25//3 23//3 7//3
f 25//2 7//2 26//2
f 4//3 11//3 8//3
f 24//6 35//6 5//6
f 13//2 12//2 17//2
f 2//3 9//3 3//3
f 3//5 10//5 4//5
f 8//3 14//3 26//3
f 47//1 9//1 48//1
f 15//6 17//6 16//6
f 5//5 13//5 15//5
f 12//1 1//1 18//1
f 1//4 5//4 16//4
f 31//5 36//5 20//5
f 29//2 30//2 21//2
f 20//3 28//3 21//3
f 28//4 27//4 23//4
f 38//3 34//3 85//3
f 32//1 33//1 77//1
f 31//3 32//3 75//3
f 37//6 36//6 86//6
f 35//6 37//6 80//6
f 33//3 38//3 78//3
f 20//4 19//4 28//4
f 28//3 23//3 29//3
f 25//2 26//2 29//2
f 22//3 30//3 33//3
f 24//6 27//6 35//6
f 37//2 41//2 36//2
f 20//3 21//3 31//3
f 21//1 22//1 32//1
f 30//3 26//3 38//3
f 75//5 76//5 31//5
f 39//6 40//6 41//6
f 27//1 39//1 37//1
f 36//5 42//5 19//5
f 19//4 40//4 27//4
f 57//1 60//1 44//1
f 53//4 54//4 45//4
f 44//3 52//3 45//3
f 52//2 51//2 71//2
f 62//3 90//3 55//3
f 58//5 59//5 49//5
f 57//3 58//3 47//3
f 61//6 60//6 56//6
f 91//6 61//6 80//6
f 59//3 62//3 50//3
f 44//2 43//2 52//2
f 52//3 71//3 53//3
f 73//4 74//4 53//4
f 46//3 54//3 59//3
f 72//6 51//6 91//6
f 61//4 65//4 60//4
f 44//3 45//3 57//3
f 45//5 46//5 58//5
f 54//3 74//3 62//3
f 47//1 48//1 57//1
f 63//6 64//6 65//6
f 51//5 63//5 61//5
f 60//1 66//1 43//1
f 43//2 64//2 51//2
f 87//5 68//5 92//5
f 83//4 69//4 84//4
f 83//3 82//3 69//3
f 82//2 71//2 81//2
f 94//3 85//3 90//3
f 88//1 77//1 89//1
f 87//3 75//3 88//3
f 93//6 86//6 92//6
f 91//6 80//6 93//6
f 89//3 78//3 94//3
f 68//2 82//2 67//2
f 73//3 71//3 83//3
f 73//4 83//4 74//4
f 70//3 89//3 84//3
f 72//6 91//6 81//6
f 93//4 92//4 97//4
f 68//3 87//3 69//3
f 69//1 88//1 70//1
f 84//3 94//3 74//3
f 75//5 87//5 76//5
f 95//6 97//6 96//6
f 81//1 93//1 95//1
f 92//5 67//5 98//5
f 67//2 81//2 96//2
o Cube
v 0.997827 -0.000406 -1.217719
v 0.997827 -0.000406 -1.001770
v 0.756684 -0.000406 -1.001770
v 0.756684 -0.000406 -1.217719
v 0.997827 1.999594 -1.217719
v 0.997827 1.999594 -1.001770
v 0.756684 1.999594 -1.001770
v 0.756684 1.999594 -1.217719
vn 0.000000 -1.000000 -0.000000
vn 0.000000 1.000000 0.000000
vn 1.000000 0.000000 0.000000
vn -0.000000 0.000000 1.000000
vn -1.000000 0.000000 -0.000000
vn 0.000000 0.000000 -1.000000
s off
f 100//7 101//7 102//7
f 106//8 105//8 104//8
f 103//9 104//9 100//9
f 104//10 105//10 101//10
f 105//11 106//11 102//11
f 99//12 102//12 106//12
f 99//7 100//7 102//7
f 103//8 106//8 104//8
f 99//9 103//9 100//9
f 100//10 104//10 101//10
f 101//11 105//11 102//11
f 103//12 99//12 106//12
o Cube.001
v 1.998508 0.000883 -1.216431
v 1.998508 0.000883 -1.000482
v 1.757365 0.000883 -1.000482
v 1.757365 0.000883 -1.216431
v 1.998508 2.000883 -1.216431
v 1.998507 2.000883 -1.000482
v 1.757365 2.000883 -1.000482
v 1.757365 2.000883 -1.216431
vn 0.000000 -1.000000 0.000000
vn 0.000000 1.000000 0.000000
vn 1.000000 0.000000 0.000000
vn -0.000000 0.000000 1.000000
vn -1.000000 -0.000000 0.000000
vn 0.000000 0.000000 -1.000000
s off
f 108//13 109//13 110//13
f 114//14 113//14 112//14
f 111//15 112//15 108//15
f 112//16 113//16 109//16
f 113//17 114//17 110//17
f 107//18 110//18 114//18
f 107//13 108//13 110//13
f 111//14 114//14 112//14
f 107//15 111//15 108//15
f 108//16 112//16 109//16
f 109//17 113//17 110//17
f 111//18 107//18 114//18
o Cube.002
v 1.999320 -0.001409 0.780872
v 1.999320 -0.001409 0.996822
v 1.758177 -0.001409 0.996822
v 1.758177 -0.001409 0.780872
v 1.999320 1.998591 0.780872
v 1.999320 1.998591 0.996822
v 1.758177 1.998591 0.996822
v 1.758177 1.998591 0.780872
vn 0.000000 -1.000000 -0.000000
vn 0.000000 1.000000 0.000000
vn 1.000000 0.000000 0.000000
vn -0.000000 0.000000 1.000000
vn -1.000000 -0.000000 0.000000
vn 0.000000 0.000000 -1.000000
s off
f 116//19 117//19 118//19
f 119//20 122//20 121//20
f 119//21 120//21 116//21
f 120//22 121//22 117//22
f 121//23 122//23 118//23
f 115//24 118//24 122//24
f 115//19 116//19 118//19
f 120//20 119//20 121//20
f 115//21 119//21 116//21
f 116//22 120//22 117//22
f 117//23 121//23 118//23
f 119//24 115//24 122//24
o Cube.003
v 0.998752 -0.000396 0.779905
v 0.998752 -0.000396 0.995855
v 0.757609 -0.000396 0.995855
v 0.757609 -0.000396 0.779905
v 0.998752 1.999604 0.779905
v 0.998752 1.999604 0.995855
v 0.757609 1.999604 0.995855
v 0.757609 1.999604 0.779905
vn 0.000000 -1.000000 0.000000
vn 0.000000 1.000000 0.000000
vn 1.000000 0.000000 0.000000
vn -0.000000 0.000000 1.000000
vn -1.000000 0.000000 -0.000000
vn 0.000000 0.000000 -1.000000
s off
f 124//25 125//25 126//25
f 130//26 129//26 128//26
f 127//27 128//27 124//27
f 128//28 129//28 125//28
f 129//29 130//29 126//29
f 123//30 126//30 130//30
f 123//25 124//25 126//25
f 127//26 130//26 128//26
f 123//27 127//27 124//27
f 124//28 128//28 125//28
f 125//29 129//29 126//29
f 127//30 123//30 130//30
o Cube.004
v 0.553452 2.179363 1.572864
v 0.553452 2.179363 -1.856904
v 2.245445 2.179363 -1.856903
v 2.245444 2.179363 1.572864
v 0.553451 2.002106 1.572863
v 0.553452 2.002106 -1.856905
v 2.245445 2.002106 -1.856903
v 2.245445 2.002106 1.572864
vn 0.000000 1.000000 -0.000000
vn 1.000000 0.000000 0.000000
vn -0.000000 0.000000 1.000000
vn -1.000000 -0.000000 -0.000000
vn 0.000000 0.000000 -1.000000
s off
f 135//31 138//31 137//31
f 135//32 136//32 132//32
f 136//33 137//33 133//33
f 133//34 137//34 138//34
f 131//35 134//35 138//35
f 136//31 135//31 137//31
f 131//32 135//32 132//32
f 132//33 136//33 133//33
f 134//34 133//34 138//34
f 135//35 131//35 138//35
